<svg width="147" height="40" viewBox="0 0 147 40" fill="none" xmlns="http://www.w3.org/2000/svg">
  <path
    d="M32.3603 30.5886C31.5769 30.8878 30.7443 31.0368 29.9059 31.028C27.0812 31.028 24.7091 29.305 24.7091 25.5363L24.6816 0H28.6581L28.5895 24.7537C28.5895 26.7719 29.3574 27.5751 31.3319 27.5751C31.6758 27.5733 32.0193 27.5504 32.3603 27.5064V30.5886Z"
    fill="#1B76A0" />
  <path
    d="M19.9646 20.4565C19.9646 27.1083 16.8314 31.028 11.5318 31.028C6.92455 31.028 4.15473 28.337 4.15473 23.8476H4.07246V40H0V10.2969H4.07246V17.0722H4.15473C4.15473 12.5828 6.89712 9.89188 11.5318 9.89188C16.8314 9.89188 19.9646 13.8116 19.9646 20.4565ZM15.8099 20.4565C15.8099 15.8915 13.6091 13.1937 9.81777 13.1937C6.02641 13.1937 3.79136 16.0494 3.79136 20.4565C3.79136 24.8636 6.03327 27.7192 9.81777 27.7192C13.6023 27.7192 15.8099 25.0283 15.8099 20.4565Z"
    fill="#185D85" />
  <path
    d="M54.3543 10.2969V30.6161H50.2818V23.8476H50.1996C50.1996 28.337 47.4572 31.028 42.8225 31.028C37.5228 31.028 34.3896 27.1083 34.3896 20.4565C34.3896 13.8047 37.5228 9.89188 42.8225 9.89188C47.4709 9.89188 50.1996 12.5828 50.1996 17.0722H50.2818V10.2969H54.3543ZM50.5629 20.4565C50.5629 16.0494 48.3622 13.1937 44.5776 13.1937C40.7931 13.1937 38.5855 15.8915 38.5855 20.4565C38.5855 25.0214 40.7863 27.7192 44.5639 27.7192C48.3416 27.7192 50.5629 24.8636 50.5629 20.4565Z"
    fill="#1F9FBC" />
  <path
    d="M58.9204 24.0261H62.794C62.794 26.6827 64.6246 28.2753 67.7646 28.2753C70.9047 28.2753 72.653 27.0877 72.653 25.0489C72.653 22.4815 69.9654 22.0285 67.031 21.4999C63.5276 20.9301 59.5306 20.2368 59.5306 15.8297C59.5306 12.116 62.5884 9.87128 67.7578 9.87128C72.9272 9.87128 75.985 12.3631 75.985 16.6054H72.125C72.125 14.0724 70.5345 12.5622 67.7646 12.5622C64.9948 12.5622 63.4865 13.6674 63.4865 15.5002C63.4865 17.6214 65.9272 18.0745 68.697 18.5619C72.3239 19.214 76.6089 19.9348 76.6089 24.6851C76.6089 28.6391 73.3043 31.0074 67.7646 31.0074C62.225 31.0074 58.9204 28.4537 58.9204 24.0261Z"
    fill="#52B599" />
  <path
    d="M129.037 24.0261H132.903C132.903 26.6827 134.741 28.2753 137.874 28.2753C141.007 28.2753 142.769 27.0877 142.769 25.0489C142.769 22.4815 140.075 22.0285 137.14 21.4999C133.637 20.9301 129.647 20.2368 129.647 15.8297C129.647 12.116 132.705 9.87128 137.874 9.87128C143.043 9.87128 146.101 12.3631 146.101 16.6054H142.228C142.228 14.0724 140.644 12.5622 137.867 12.5622C135.09 12.5622 133.589 13.6674 133.589 15.5002C133.589 17.6214 136.037 18.0745 138.806 18.5619C142.44 19.2209 146.718 19.9691 146.718 24.7125C146.718 28.6665 143.421 31.0348 137.874 31.0348C132.327 31.0348 129.037 28.4537 129.037 24.0261Z"
    fill="#185D85" />
  <path
    d="M86.1046 13.2761V24.335C86.1046 26.4973 87.4072 27.7192 89.6491 27.7192C90.6391 27.7067 91.6137 27.4722 92.5012 27.0328V30.2042C91.1899 30.773 89.7756 31.0651 88.3465 31.0623C84.3906 31.0623 82.0253 28.7352 82.0253 24.7812V13.2761H78.8921V10.2969H82.3201V3.36365H86.3857V5.0798C86.3857 7.44122 84.9185 9.32212 82.4778 10.2214V10.2969H92.7617V13.2761H86.1046Z"
    fill="#78C692" />
  <path
    d="M104.588 30.5886C103.805 30.8885 102.972 31.0376 102.134 31.028C99.316 31.028 96.9438 29.3049 96.9438 25.5363V10.2969H100.817V24.7537C100.817 26.7719 101.585 27.5751 103.56 27.5751C103.901 27.5731 104.243 27.5502 104.581 27.5064L104.588 30.5886Z"
    fill="#1F9FBC" />
  <path
    d="M98.7263 7.88743C100.055 7.88743 101.133 6.80867 101.133 5.47796C101.133 4.14724 100.055 3.06848 98.7263 3.06848C97.3972 3.06848 96.3198 4.14724 96.3198 5.47796C96.3198 6.80867 97.3972 7.88743 98.7263 7.88743Z"
    fill="#1F9FBC" />
  <path
    d="M119.493 21.191C122.194 24.5684 124.875 27.2456 127.549 30.5886H123.277C120.055 26.566 118.012 24.6988 117.162 23.6142C116.883 23.2675 116.549 22.9685 116.175 22.7287C115.876 22.5348 115.535 22.4148 115.181 22.3786C114.878 22.3508 114.574 22.3647 114.276 22.4198C114 22.4748 113.734 22.572 113.487 22.7081C113.247 22.8385 113.035 22.9689 112.85 23.0856C112.688 23.1731 112.546 23.2922 112.431 23.4357L112.253 23.5662V30.5886H108.03V0H112.253V18.3697L120.665 10.2969H125.725L112.322 23.525C112.339 23.5247 112.357 23.5202 112.372 23.5119C112.388 23.5035 112.401 23.4915 112.411 23.4769C112.644 23.2161 112.898 22.9689 113.158 22.7287C113.419 22.4884 113.844 22.1452 114.529 21.6715C115.075 21.2622 115.667 20.9167 116.291 20.6418C116.826 20.4173 117.407 20.3255 117.985 20.3741C118.28 20.3936 118.568 20.4767 118.828 20.6177C119.088 20.7586 119.315 20.9542 119.493 21.191Z"
    fill="#1B76A0" />
</svg>