<svg width="24" height="24" viewBox="0 0 24 24" fill="none" xmlns="http://www.w3.org/2000/svg">
  <path fill-rule="evenodd" clip-rule="evenodd"
    d="M15.7929 15.7929C18.136 13.4497 18.136 9.65075 15.7929 7.30761C13.4497 4.96446 9.65072 4.96446 7.30757 7.30761C4.96443 9.65075 4.96443 13.4497 7.30757 15.7929C9.65072 18.136 13.4497 18.136 15.7929 15.7929ZM17.2071 5.89339C20.0922 8.77857 20.313 13.3192 17.8692 16.4577C17.8845 16.4713 17.8995 16.4854 17.9142 16.5L20.1568 18.7426C20.5473 19.1332 20.5473 19.7663 20.1568 20.1568C19.7663 20.5474 19.1331 20.5474 18.7426 20.1568L16.5 17.9142C16.4853 17.8996 16.4712 17.8846 16.4577 17.8693C13.3192 20.313 8.77854 20.0923 5.89336 17.2071C2.76917 14.0829 2.76917 9.01759 5.89336 5.89339C9.01755 2.7692 14.0829 2.7692 17.2071 5.89339Z"
    fill="currentColor" />
</svg>