<svg width="40" height="40" viewBox="0 0 40 40" fill="none" xmlns="http://www.w3.org/2000/svg">
  <circle cx="20" cy="20" r="20" fill="#183748" />
  <path fill-rule="evenodd" clip-rule="evenodd"
    d="M16.4065 11.1519C16.7615 10.7969 16.7615 10.2213 16.4065 9.86626C16.0514 9.51124 15.4758 9.51124 15.1208 9.86626L10.2663 14.7208C10.1749 14.8121 10.1071 14.9181 10.0628 15.0311C10.0222 15.1341 10 15.2463 10 15.3637C10 15.4938 10.0273 15.6175 10.0766 15.7295C10.1121 15.8103 10.16 15.8871 10.2202 15.9569C10.2365 15.9757 10.2535 15.9939 10.2712 16.0114L15.1208 20.861C15.4758 21.216 16.0514 21.216 16.4065 20.861C16.7615 20.506 16.7615 19.9304 16.4065 19.5753L13.1039 16.2728H22C22.5021 16.2728 22.9091 15.8657 22.9091 15.3637C22.9091 14.8616 22.5021 14.4546 22 14.4546H13.1038L16.4065 11.1519Z"
    fill="white" />
  <path fill-rule="evenodd" clip-rule="evenodd"
    d="M24.7252 19.576C24.3705 19.2206 23.7949 19.2201 23.4396 19.5747C23.0842 19.9294 23.0837 20.505 23.4384 20.8604L26.7354 24.1636H17.8454C17.3433 24.1636 16.9363 24.5707 16.9363 25.0727C16.9363 25.5748 17.3433 25.9818 17.8454 25.9818H26.7325L23.439 29.2753C23.0839 29.6304 23.0839 30.206 23.439 30.561C23.794 30.916 24.3696 30.916 24.7246 30.561L29.5701 25.7155C29.6732 25.6124 29.7464 25.4907 29.7896 25.3611C29.8084 25.3047 29.8219 25.2458 29.8294 25.1851C29.8391 25.1069 29.8386 25.0278 29.828 24.9497C29.8214 24.9004 29.8107 24.8523 29.7965 24.8058C29.7544 24.6685 29.6792 24.5392 29.5707 24.4305L24.7252 19.576Z"
    fill="white" />
</svg>