<svg width="32" height="32" viewBox="0 0 32 32" fill="none" xmlns="http://www.w3.org/2000/svg">
  <circle cx="16" cy="16" r="16" fill="currentColor" />
  <path fill-rule="evenodd" clip-rule="evenodd"
    d="M13.1252 8.92152C13.4092 8.63751 13.4092 8.17702 13.1252 7.89301C12.8411 7.60899 12.3807 7.60899 12.0966 7.89301L8.21301 11.7766C8.14043 11.8492 8.0864 11.9333 8.05091 12.0231C8.01806 12.106 8 12.1963 8 12.2909C8 12.394 8.02143 12.492 8.06007 12.5808C8.08947 12.6485 8.12965 12.7127 8.18062 12.7706C8.19217 12.7838 8.20418 12.7965 8.21663 12.8088L12.0966 16.6888C12.3807 16.9728 12.8411 16.9728 13.1252 16.6888C13.4092 16.4048 13.4092 15.9443 13.1252 15.6603L10.4831 13.0182H17.6C18.0017 13.0182 18.3273 12.6926 18.3273 12.2909C18.3273 11.8893 18.0017 11.5637 17.6 11.5637H10.483L13.1252 8.92152Z"
    fill="white" />
  <path fill-rule="evenodd" clip-rule="evenodd"
    d="M19.7802 15.6608C19.4964 15.3765 19.0359 15.376 18.7516 15.6598C18.4674 15.9435 18.4669 16.404 18.7507 16.6883L21.3883 19.3309H14.2763C13.8747 19.3309 13.5491 19.6565 13.5491 20.0582C13.5491 20.4599 13.8747 20.7855 14.2763 20.7855H21.386L18.7512 23.4203C18.4671 23.7043 18.4671 24.1648 18.7512 24.4488C19.0352 24.7328 19.4957 24.7328 19.7797 24.4488L23.652 20.5765C23.6666 20.5621 23.6806 20.5471 23.694 20.5316C23.7396 20.4784 23.7763 20.4202 23.8041 20.359C23.8458 20.2673 23.8691 20.1655 23.8691 20.0582C23.8691 19.9588 23.8491 19.8641 23.8131 19.7778C23.7777 19.693 23.7255 19.6135 23.6565 19.5444L19.7802 15.6608Z"
    fill="white" />
</svg>