<svg width="40" height="40" viewBox="0 0 40 40" fill="currentColor" xmlns="http://www.w3.org/2000/svg">
  <path
    d="M19.9995 27.4128C18.8812 27.4128 17.9438 28.3502 17.9438 29.4685C17.9438 30.5868 18.8812 31.5242 19.9995 31.5242C21.0767 31.5242 22.0552 30.5868 22.0058 29.5178C22.0552 28.342 21.126 27.4128 19.9995 27.4128Z" />
  <path
    d="M39.0267 34.698C40.3176 32.4696 40.3258 29.8137 39.0431 27.5936L26.1665 5.29388C24.892 3.04911 22.5896 1.71704 20.0077 1.71704C17.4258 1.71704 15.1235 3.05733 13.849 5.28566L0.955919 27.6101C-0.32681 29.8548 -0.318587 32.5272 0.980587 34.7555C2.26332 36.9592 4.55743 38.283 7.12288 38.283H32.8432C35.4169 38.283 37.7275 36.9427 39.0267 34.698ZM36.231 33.0863C35.5156 34.3197 34.2493 35.0515 32.835 35.0515H7.11466C5.71682 35.0515 4.45876 34.3362 3.75983 33.1275C3.05269 31.9023 3.04446 30.4387 3.75161 29.2053L16.6447 6.88907C17.3436 5.6639 18.5934 4.94031 20.0077 4.94031C21.4138 4.94031 22.6719 5.67212 23.3708 6.89729L36.2556 29.2135C36.9463 30.414 36.9381 31.8612 36.231 33.0863Z" />
  <path
    d="M19.4898 12.982C18.5113 13.2616 17.9028 14.1496 17.9028 15.2268C17.9522 15.8763 17.9933 16.5342 18.0426 17.1837C18.1824 19.6588 18.3222 22.0844 18.462 24.5594C18.5113 25.3981 19.1609 26.0066 19.9996 26.0066C20.8383 26.0066 21.4961 25.357 21.5372 24.5101C21.5372 24.0003 21.5372 23.5316 21.5866 23.0136C21.677 21.4266 21.7757 19.8396 21.8661 18.2527C21.9155 17.2249 22.0059 16.197 22.0553 15.1692C22.0553 14.7992 22.0059 14.4703 21.8661 14.1414C21.4468 13.2204 20.4683 12.7518 19.4898 12.982Z" />
</svg>