<svg width="363" height="254" viewBox="0 0 363 254" fill="none" xmlns="http://www.w3.org/2000/svg">
  <path
    d="M256.99 52.9248C256.99 79.2658 236.051 101.048 210.005 102.568C208.983 102.568 207.962 102.568 206.94 102.568C198.258 102.568 189.576 100.035 182.426 95.9822C167.105 87.3707 156.891 71.1609 156.891 52.4182C156.891 39.7543 161.487 28.1035 169.658 19.4921C178.851 9.3609 192.13 2.77567 206.94 2.77567C226.347 2.77567 243.2 13.9199 251.373 30.1298C254.946 37.2215 256.99 44.8199 256.99 52.9248Z"
    fill="#52B599" stroke="#E6EBEA" stroke-width="2" stroke-miterlimit="10" />
  <path opacity="0.1"
    d="M256.551 52.9258C256.551 79.2666 235.612 101.049 209.565 102.568C199.862 101.049 190.669 98.5159 181.987 96.4897C166.666 87.8781 156.451 71.6683 156.451 52.9258C156.451 40.2617 161.048 28.6111 169.219 19.9995C186.072 19.4929 205.479 21.0127 225.398 24.5584C234.59 26.0782 243.271 28.1043 251.444 30.1307C254.507 37.2225 256.551 44.8209 256.551 52.9258Z"
    fill="#AAB2C5" />
  <path
    d="M317.614 86.4495C321.468 64.9662 273.945 38.6102 211.465 27.582C148.986 16.5537 95.212 25.0292 91.3575 46.5125C87.5032 67.9959 135.028 94.3519 197.507 105.38C259.987 116.408 313.759 107.933 317.614 86.4495Z"
    fill="#E3F3F1" stroke="#E6EBEA" stroke-width="2" stroke-miterlimit="10" />
  <path
    d="M195.538 39.85C195.822 36.2241 190.126 32.8274 182.814 32.2636C175.503 31.6997 169.345 34.1822 169.061 37.8081C168.777 41.4342 174.473 44.8307 181.785 45.3945C189.096 45.9584 195.254 43.4761 195.538 39.85Z"
    fill="#6EC5B2" />
  <path
    d="M131.277 49.1615C138.307 47.0913 143.16 42.5869 142.116 39.1006C141.073 35.6143 134.528 34.4662 127.498 36.5362C120.468 38.6064 115.615 43.1108 116.659 46.5972C117.702 50.0837 124.247 51.2317 131.277 49.1615Z"
    fill="#6EC5B2" />
  <path
    d="M247.189 53.1759C247.831 49.5954 242.5 45.6596 235.279 44.3852C228.059 43.1108 221.685 44.9803 221.043 48.5609C220.401 52.1415 225.732 56.0772 232.952 57.3516C240.173 58.626 246.545 56.7565 247.189 53.1759Z"
    fill="#6EC5B2" />
  <path
    d="M285.957 79.6624C287.638 76.4299 283.716 71.107 277.199 67.7735C270.68 64.4398 264.035 64.3579 262.354 67.5905C260.673 70.823 264.595 76.1458 271.112 79.4793C277.631 82.813 284.277 82.8949 285.957 79.6624Z"
    fill="#6EC5B2" />
  <path d="M198.119 70.7919L150.112 70.2854L81.7441 197.504L273.637 217.693L252.254 88.0148L198.119 70.7919Z"
    fill="url(#paint0_linear_24_3583)" />
  <path opacity="0.4"
    d="M298.72 251.817H53.0684C59.7077 245.864 69.4111 239.911 80.6467 235.446C86.7753 233.214 93.9252 230.238 101.075 228.749C122.525 222.796 148.571 219.076 176.149 219.076C209.346 219.076 239.988 224.284 263.482 232.469C271.652 235.446 278.801 238.422 284.93 242.144C290.549 245.119 295.145 248.095 298.72 251.817Z"
    fill="#F1F3F9" stroke="#BDBDBD" stroke-width="2" stroke-miterlimit="10" />
  <path
    d="M103.553 234.901C103.875 237.924 98.6103 241.541 92.5163 242.19C86.4221 242.84 81.0757 240.863 80.2461 237.895C86.1791 235.735 93.0745 232.962 100.077 231.196C102.216 231.988 103.392 233.39 103.553 234.901Z"
    fill="#E6EBEA" />
  <path
    d="M147.549 230.221C155.729 230.221 162.359 228.631 162.359 226.673C162.359 224.714 155.729 223.127 147.549 223.127C139.369 223.127 132.738 224.714 132.738 226.673C132.738 228.631 139.369 230.221 147.549 230.221Z"
    fill="#E6EBEA" />
  <path
    d="M227.382 229.928C227.55 227.416 221.069 224.945 212.906 224.408C204.746 223.872 197.993 225.474 197.825 227.985C197.658 230.497 204.138 232.97 212.3 233.505C220.46 234.043 227.214 232.441 227.382 229.928Z"
    fill="#E6EBEA" />
  <path
    d="M282.301 243.011C280.27 242.778 277.834 242.855 274.848 242.001C266.789 240.561 260.484 237.284 260.773 234.769C260.832 234.265 260.832 234.265 261.396 233.82C269.282 236.77 276.449 239.622 282.301 243.011Z"
    fill="#E6EBEA" />
  <path
    d="M251.949 89.5985C253.678 79.9584 232.119 68.0908 203.795 63.0914C175.471 58.0918 151.108 61.8537 149.378 71.4935C147.649 81.1336 169.208 93.0012 197.532 98.0006C225.855 103 250.218 99.2383 251.949 89.5985Z"
    fill="#9AD2C6" stroke="#E6EBEA" stroke-width="2" stroke-miterlimit="10" />
  <path
    d="M68.5525 136.283C68.5525 136.283 50.9111 140.764 56.2568 144.348C61.6028 147.754 74.2547 153.669 86.1938 149.726C98.1332 145.782 86.1938 140.226 86.3722 140.226C86.5503 140.226 68.5525 136.283 68.5525 136.283Z"
    fill="#E6EBEA" />
  <path
    d="M46.9902 134.848C53.4053 136.82 73.1852 133.593 85.8371 125.348C95.816 137.716 99.5583 140.942 103.122 141.301C97.5981 146.857 79.2439 155.82 68.9085 144.169C56.791 151.876 46.9902 134.848 46.9902 134.848Z"
    fill="#E3F3F1" />
  <path
    d="M258.885 150.982C265.656 151.341 284.012 143.095 293.989 131.982C306.82 141.482 311.096 143.633 314.839 143.095C310.739 149.907 298.267 164.784 280.625 165.859C267.794 158.331 258.885 150.982 258.885 150.982Z"
    fill="#E3F3F1" />
  <path
    d="M200.2 151.205C198.86 144.555 186.306 128.825 173.062 121.925C179.063 107.127 180.08 102.448 178.627 98.956C186.242 101.23 203.751 109.611 209.186 126.435C205.095 140.742 200.2 151.205 200.2 151.205Z"
    fill="white" />
  <path d="M359.394 251.818H343.888H22.4051H2.37109" stroke="#D5DAE8" stroke-width="2" stroke-miterlimit="10"
    stroke-linecap="round" stroke-linejoin="round" />
  <path
    d="M140.51 211.115V221.246H134.382V230.87H122.635V221.246H97.0996V209.596L120.592 177.176H133.871V211.115H140.51ZM123.146 190.346L108.335 211.115H123.146V190.346Z"
    fill="#6EC5B2" stroke="#6EC5B2" stroke-width="2" stroke-miterlimit="10" stroke-linejoin="round" />
  <path
    d="M173.086 231.884C160.828 231.884 150.104 221.246 150.104 204.024C150.104 186.801 160.828 176.163 173.086 176.163C185.343 176.163 196.068 186.801 196.068 204.024C196.578 220.74 185.853 231.884 173.086 231.884ZM173.086 221.246C178.703 221.246 184.832 215.675 184.832 203.517C184.832 191.867 179.214 185.788 173.086 185.788C167.468 185.788 161.339 191.36 161.339 203.517C161.85 215.675 167.468 221.246 173.086 221.246Z"
    fill="#6EC5B2" stroke="#6EC5B2" stroke-width="2" stroke-miterlimit="10" stroke-linejoin="round" />
  <path
    d="M250.091 211.115V221.246H243.964V230.87H232.218V221.246H206.682V209.596L230.174 177.176H243.452V211.115H250.091ZM232.218 190.346L217.406 211.115H232.218V190.346Z"
    fill="#6EC5B2" stroke="#6EC5B2" stroke-width="2" stroke-miterlimit="10" stroke-linejoin="round" />
  <defs>
    <linearGradient id="paint0_linear_24_3583" x1="177.703" y1="75.4061" x2="177.703" y2="158.145"
      gradientUnits="userSpaceOnUse">
      <stop stop-color="#52B599" />
      <stop offset="1" stop-color="#6EC5B2" stop-opacity="0" />
    </linearGradient>
  </defs>
</svg>