<svg width="32" height="32" viewBox="0 0 32 32" fill="none" xmlns="http://www.w3.org/2000/svg">
  <path d="M29.2958 2.6664L17.6211 11.3049L19.7921 6.21395L29.2958 2.6664Z" fill="#E17726" stroke="#E17726"
    stroke-width="0.25" stroke-linecap="round" stroke-linejoin="round" />
  <path
    d="M2.3666 2.6664L13.9375 11.3855L11.8704 6.21394L2.3666 2.6664ZM25.0923 22.6961L21.9859 27.4415L28.6374 29.2729L30.5428 22.7998L25.0923 22.6961ZM1.13086 22.7998L3.02468 29.2729L9.66465 27.4415L6.56982 22.6961L1.13086 22.7998Z"
    fill="#E27625" stroke="#E27625" stroke-width="0.25" stroke-linecap="round" stroke-linejoin="round" />
  <path
    d="M9.30657 14.6803L7.45898 17.4677L14.0411 17.7671L13.8218 10.6836L9.30657 14.6803ZM22.3554 14.6797L17.771 10.6023L17.6209 17.7665L24.2031 17.467L22.3554 14.6797ZM9.66481 27.4417L13.6487 25.5182L10.2191 22.8461L9.66481 27.4417ZM18.0137 25.5182L21.986 27.4417L21.4433 22.8461L18.0137 25.5182Z"
    fill="#E27625" stroke="#E27625" stroke-width="0.25" stroke-linecap="round" stroke-linejoin="round" />
  <path
    d="M21.9862 27.4423L18.0139 25.5187L18.3372 28.0987L18.3026 29.193L21.9862 27.4423ZM9.66504 27.4423L13.3604 29.193L13.3373 28.0987L13.649 25.5187L9.66504 27.4423Z"
    fill="#D5BFB2" stroke="#D5BFB2" stroke-width="0.25" stroke-linecap="round" stroke-linejoin="round" />
  <path
    d="M13.4296 21.1418L10.127 20.1743L12.4596 19.1031L13.4296 21.1418ZM18.2336 21.1418L19.2036 19.1031L21.5478 20.1743L18.2336 21.1418Z"
    fill="#233447" stroke="#233447" stroke-width="0.25" stroke-linecap="round" stroke-linejoin="round" />
  <path
    d="M9.66504 27.4415L10.2425 22.6961L6.57031 22.7998L9.66504 27.4415ZM21.4205 22.6961L21.9864 27.4415L25.0927 22.7998L21.4205 22.6961ZM24.2034 17.4672L17.6213 17.7666L18.2333 21.1415L19.2034 19.1027L21.5475 20.1739L24.2034 17.4672ZM10.1269 20.1739L12.4595 19.1027L13.4295 21.1415L14.0415 17.7666L7.45938 17.4672L10.1269 20.1739Z"
    fill="#CC6228" stroke="#CC6228" stroke-width="0.25" stroke-linecap="round" stroke-linejoin="round" />
  <path
    d="M7.45996 17.4672L10.2199 22.8462L10.1274 20.1739L7.45996 17.4672ZM21.5481 20.1739L21.4442 22.8462L24.2041 17.4672L21.5481 20.1739ZM14.0424 17.7664L13.4303 21.1413L14.204 25.1264L14.3772 19.8742L14.0424 17.7664ZM17.622 17.7664L17.2986 19.8628L17.4603 25.1264L18.234 21.1413L17.622 17.7664Z"
    fill="#E27525" stroke="#E27525" stroke-width="0.25" stroke-linecap="round" stroke-linejoin="round" />
  <path
    d="M18.2334 21.1418L17.4598 25.127L18.0141 25.5186L21.4438 22.8464L21.5477 20.1742L18.2334 21.1418ZM10.127 20.1742L10.2194 22.8464L13.649 25.5186L14.2033 25.127L13.4296 21.1418L10.127 20.1742Z"
    fill="#F5841F" stroke="#F5841F" stroke-width="0.25" stroke-linecap="round" stroke-linejoin="round" />
  <path
    d="M18.3028 29.193L18.3374 28.0987L18.0372 27.8453H13.626L13.3373 28.0987L13.3604 29.193L9.66504 27.4422L10.9584 28.5019L13.5798 30.3102H18.0718L20.7046 28.5019L21.9864 27.4422L18.3028 29.193Z"
    fill="#C0AC9D" stroke="#C0AC9D" stroke-width="0.25" stroke-linecap="round" stroke-linejoin="round" />
  <path
    d="M18.0137 25.5181L17.4594 25.1266H14.203L13.6488 25.5181L13.3369 28.0983L13.6256 27.8448H18.0368L18.3372 28.0983L18.0137 25.5181Z"
    fill="#161616" stroke="#161616" stroke-width="0.25" stroke-linecap="round" stroke-linejoin="round" />
  <path
    d="M29.7924 11.8693L30.774 7.10083L29.2959 2.6664L18.0139 11.017L22.3557 14.6797L28.4876 16.465L29.8387 14.887L29.2498 14.4608L30.1851 13.6086L29.4692 13.0557L30.4045 12.3415L29.7924 11.8693ZM0.888672 7.10083L1.88178 11.8693L1.24666 12.3415L2.19357 13.0557L1.47761 13.6086L2.41297 14.4608L1.82403 14.887L3.17512 16.465L9.30701 14.6797L13.6488 11.017L2.36678 2.6664L0.888672 7.10083Z"
    fill="#763E1A" stroke="#763E1A" stroke-width="0.25" stroke-linecap="round" stroke-linejoin="round" />
  <path
    d="M28.4874 16.465L22.3556 14.6797L24.2033 17.467L21.4434 22.8459L25.0924 22.7998H30.5429L28.4874 16.465ZM9.30657 14.6797L3.1748 16.465L1.13086 22.7998H6.56982L10.2189 22.8459L7.45899 17.467L9.30657 14.6797ZM17.621 17.7666L18.0137 11.017L19.792 6.21406H11.8703L13.6487 11.017L14.0412 17.7666L14.1914 19.8859L14.203 25.1266H17.4594L17.471 19.8859L17.621 17.7666Z"
    fill="#F5841F" stroke="#F5841F" stroke-width="0.25" stroke-linecap="round" stroke-linejoin="round" />
</svg>