<svg width="90" height="90" viewBox="0 0 90 90" fill="none" xmlns="http://www.w3.org/2000/svg">
  <g clip-path="url(#clip0_16_894)">
    <path
      d="M72 90H1.02418C0.752552 90 0.492047 89.892 0.299976 89.6997C0.107905 89.5074 0 89.2466 0 88.9746L0 1.02535C0 0.753409 0.107905 0.492608 0.299976 0.300318C0.492047 0.108028 0.752552 0 1.02418 0L54.4865 0C54.6205 0.000491029 54.753 0.0279786 54.8762 0.0808252C54.9994 0.133672 55.1106 0.210796 55.2034 0.307605L72.7169 17.9436C72.8155 18.0404 72.8936 18.1561 72.9464 18.2839C72.9992 18.4116 73.0257 18.5487 73.0242 18.687V45.0128C73.0252 45.1472 72.9984 45.2803 72.9455 45.4039C72.8927 45.5274 72.8148 45.6386 72.7169 45.7306L50.0825 68.4164L46.6003 77.5933L55.7411 74.0302L71.2831 58.4705C71.4201 58.3227 71.5997 58.2211 71.7969 58.1797C71.9941 58.1384 72.1993 58.1594 72.3841 58.2398C72.5729 58.3163 72.7346 58.4473 72.8486 58.6163C72.9626 58.7852 73.0238 58.9844 73.0242 59.1883V88.9746C73.0242 89.2466 72.9163 89.5074 72.7242 89.6997C72.5321 89.892 72.2716 90 72 90ZM2.04836 87.9493H70.9758V61.6491L57.0213 75.6195C56.9184 75.7196 56.7965 75.798 56.6629 75.8502L45.2176 80.3361C45.0316 80.4094 44.8283 80.4266 44.6327 80.3856C44.437 80.3446 44.2576 80.2472 44.1166 80.1054C43.9772 79.9682 43.881 79.7931 43.84 79.6017C43.7991 79.4103 43.8151 79.2111 43.8862 79.0288L48.239 67.4423C48.3142 67.2656 48.4386 67.1143 48.5974 67.0065L70.9758 44.577V18.9433L54.0512 2.0507H2.04836V87.9493Z"
      fill="#E6EBEA" />
    <path
      d="M72.0001 19.5842H54.461C54.1894 19.5842 53.9289 19.4762 53.7368 19.2839C53.5447 19.0916 53.4368 18.8308 53.4368 18.5588V1.02537C53.4345 0.819348 53.4942 0.617406 53.6082 0.445862C53.7222 0.274318 53.8851 0.14113 54.0758 0.0636588C54.2665 -0.0138124 54.4761 -0.0319733 54.6773 0.0115434C54.8784 0.0550601 55.0618 0.158236 55.2035 0.307622L72.7171 17.9436C72.8638 18.0869 72.9642 18.2711 73.0053 18.4721C73.0464 18.6732 73.0262 18.882 72.9475 19.0715C72.855 19.2387 72.7167 19.3758 72.5488 19.4667C72.3809 19.5575 72.1905 19.5983 72.0001 19.5842ZM55.4852 17.5591H69.5421L55.4852 3.4862V17.5591Z"
      fill="#E6EBEA" />
    <path
      d="M56.3305 75.9271C56.1965 75.9266 56.064 75.8991 55.9408 75.8463C55.8176 75.7934 55.7063 75.7163 55.6136 75.6195L48.5211 68.5446C48.4243 68.4492 48.3475 68.3355 48.295 68.2101C48.2426 68.0846 48.2156 67.95 48.2156 67.814C48.2156 67.6781 48.2426 67.5435 48.295 67.418C48.3475 67.2926 48.4243 67.1789 48.5211 67.0835L79.7074 35.8873C80.2675 35.3234 80.9339 34.8767 81.668 34.573C82.4021 34.2694 83.1891 34.1149 83.9834 34.1185C84.7742 34.1125 85.5581 34.2661 86.2883 34.5699C87.0186 34.8738 87.6802 35.3218 88.2337 35.8873C88.795 36.4469 89.2404 37.1121 89.5443 37.8445C89.8481 38.5769 90.0046 39.3622 90.0046 40.1553C90.0046 40.9484 89.8481 41.7336 89.5443 42.4661C89.2404 43.1985 88.795 43.8636 88.2337 44.4233L57.0218 75.6195C56.8406 75.8089 56.5923 75.9193 56.3305 75.9271ZM50.6975 67.8012L56.3305 73.4663L86.7999 42.9109C87.1715 42.5416 87.4664 42.1023 87.6677 41.6184C87.8689 41.1344 87.9725 40.6154 87.9725 40.0912C87.9725 39.567 87.8689 39.048 87.6677 38.564C87.4664 38.0801 87.1715 37.6408 86.7999 37.2715C86.042 36.5445 85.033 36.1387 83.9834 36.1387C82.9338 36.1387 81.9248 36.5445 81.1669 37.2715L50.6975 67.8012Z"
      fill="#E6EBEA" />
    <path
      d="M44.8335 80.413C44.6993 80.414 44.5663 80.3872 44.4429 80.3342C44.3195 80.2813 44.2084 80.2034 44.1166 80.1054C43.9749 79.9642 43.8776 79.7846 43.8367 79.5888C43.7957 79.3929 43.8129 79.1893 43.8861 79.0031L45.8833 73.6969C45.9456 73.5377 46.0458 73.3961 46.1752 73.2844C46.3046 73.1727 46.4593 73.0944 46.6258 73.0561C46.7947 73.0259 46.9684 73.0357 47.1329 73.0847C47.2974 73.1336 47.4481 73.2204 47.5732 73.3381L50.825 76.5936C50.9442 76.7176 51.0321 76.8684 51.0811 77.0335C51.1301 77.1985 51.1388 77.3729 51.1066 77.542C51.0736 77.7079 50.9968 77.862 50.8842 77.9882C50.7717 78.1144 50.6274 78.2081 50.4665 78.2597L45.2176 80.3361C45.0957 80.3862 44.9653 80.4123 44.8335 80.413ZM47.2403 75.9014L46.6002 77.5933L48.2645 76.9268L47.2403 75.9014Z"
      fill="#E6EBEA" />
    <path
      d="M50.1078 78.3367C49.9756 78.3395 49.8442 78.3161 49.7211 78.2677C49.598 78.2193 49.4858 78.1469 49.3909 78.0547L46.0879 74.7992C45.954 74.6532 45.862 74.4738 45.8214 74.2798C45.7809 74.0858 45.7933 73.8845 45.8574 73.697L48.2387 67.4423C48.2947 67.2838 48.3897 67.1419 48.5151 67.0299C48.6404 66.9179 48.7919 66.8393 48.9556 66.8015C49.1245 66.767 49.2993 66.7747 49.4645 66.8239C49.6297 66.8731 49.7803 66.9622 49.903 67.0835L56.9954 74.184C57.1092 74.3064 57.1937 74.453 57.2425 74.6129C57.2913 74.7728 57.3031 74.9417 57.2771 75.1068C57.2389 75.2735 57.1606 75.4284 57.049 75.5579C56.9375 75.6875 56.796 75.7878 56.637 75.8502L50.4407 78.2598C50.3363 78.3085 50.2229 78.3347 50.1078 78.3367ZM48.0338 73.7995L50.3638 76.1322L54.4606 74.5172L49.5957 69.6468L48.0338 73.7995Z"
      fill="#E6EBEA" />
    <path
      d="M50.195 52.7386L42.3484 44.892C44.234 42.6283 45.1742 39.7248 44.9736 36.7855C44.773 33.8462 43.4469 31.0974 41.2712 29.111C39.0955 27.1245 36.2377 26.0533 33.2923 26.1203C30.3469 26.1872 27.5407 27.3871 25.4575 29.4703C23.3743 31.5535 22.1744 34.3597 22.1074 37.3051C22.0405 40.2505 23.1117 43.1083 25.0982 45.284C27.0846 47.4597 29.8334 48.7858 32.7727 48.9864C35.712 49.187 38.6155 48.2468 40.8792 46.3612L48.7258 54.2078L50.195 52.7386ZM24.2197 37.5836C24.2197 35.7341 24.7681 33.9262 25.7956 32.3884C26.8231 30.8506 28.2836 29.6521 29.9923 28.9443C31.701 28.2365 33.5812 28.0513 35.3951 28.4122C37.209 28.773 38.8752 29.6636 40.183 30.9714C41.4908 32.2791 42.3814 33.9453 42.7422 35.7593C43.103 37.5732 42.9179 39.4534 42.2101 41.1621C41.5023 42.8708 40.3038 44.3313 38.766 45.3588C37.2282 46.3863 35.4203 46.9347 33.5708 46.9347C31.0916 46.932 28.7147 45.9459 26.9616 44.1928C25.2085 42.4397 24.2224 40.0628 24.2197 37.5836Z"
      fill="#E6EBEA" />
  </g>
  <defs>
    <clipPath id="clip0_16_894">
      <rect width="90" height="90" fill="white" />
    </clipPath>
  </defs>
</svg>