<svg xmlns="http://www.w3.org/2000/svg" viewBox="0 0 70.48 49.83">
  <g id="Layer_2" data-name="Layer 2">
    <g id="Layer_1-2" data-name="Layer 1">
      <path
        d="M14.68,41.6A19.57,19.57,0,0,1,8.24,14.68C9,13.43,7.36,11,7.36,11s-2.91-.37-3.68.88a24.9,24.9,0,0,0,21.4,37.95,11.57,11.57,0,0,1-1-1.32l-.54-.82.22-1a9.44,9.44,0,0,1,.91-2.28A18.71,18.71,0,0,1,14.68,41.6Z"
        style="fill:#78c692" />
      <path
        d="M37.29,3.27a4.68,4.68,0,0,0-.7-.37c-.18-.11-.39-.17-.52-.25L34.73,2a2.76,2.76,0,0,1-.34-.15h0c-.2-.06-.38-.17-.59-.24l-.71-.25,0,0c-.25-.1-.46-.16-.71-.25L31.15.73,30.66.62A9,9,0,0,0,29.58.38,5.9,5.9,0,0,0,28.51.22L27.41.1A8.64,8.64,0,0,0,26.24,0,2.28,2.28,0,0,1,26,0c-.84,0-1.72,0-2.59,0-.52.05-1,.06-1.5.13A25.27,25.27,0,0,0,6,8.74a5.51,5.51,0,0,1,1.66.1l1,.1.57.78a13.73,13.73,0,0,1,1,1.76c0,.14.1.24.14.39A20,20,0,0,1,22.14,5.48c.47-.07.88-.13,1.33-.16a19.7,19.7,0,0,1,2.66,0c.31,0,.59,0,.82.07l.4.06,0,0,.84.14.44.09c.16,0,.28,0,.44.08a9.3,9.3,0,0,1,1.63.45,2,2,0,0,1,.55.21,3.21,3.21,0,0,1,.54.21c.17,0,.35.15.51.19l0,0c.21.06.39.17.59.24a2.32,2.32,0,0,1,.57.28l0,0c.18.11.34.15.52.26a8.36,8.36,0,0,1,1.06.58,19.62,19.62,0,0,1,6.92,7.27c.21.37.43.82.63,1.19a18.26,18.26,0,0,1,.9,2.34c.45,1.38,3.36,1.75,3.36,1.75a11.71,11.71,0,0,0,1.25-1.63,2.39,2.39,0,0,0,.5-1.73,23.37,23.37,0,0,0-1-2.65c-.22-.44-.42-.93-.64-1.38A24.92,24.92,0,0,0,38,3.64,3.52,3.52,0,0,1,37.29,3.27Z"
        style="fill:#52b599" />
      <rect x="46.32" y="25.44" width="5.21" height="43.11" rx="1.34" transform="translate(1.93 95.92) rotate(-90)"
        style="fill:#185d85" />
      <rect x="9.14" y="35.98" width="5.21" height="22.02" rx="0.96" transform="translate(-35.25 58.74) rotate(-90)"
        style="fill:#78c692" />
      <path
        d="M47.8,23.15,46.7,23a9.07,9.07,0,0,1-1.94-.45c-.16,0-.25-.1-.41-.13A19.52,19.52,0,0,1,41.6,35.16a19.85,19.85,0,0,1-9.78,8.1c-.41.17-.85.28-1.26.45-.82.24-1.62.43-2.46.59a2.27,2.27,0,0,0-1.39,1.17,8.05,8.05,0,0,0-.81,1.91s1.62,2.48,3.09,2.2A22.49,22.49,0,0,0,31.77,49c.46-.14,1-.27,1.46-.46A25,25,0,0,0,46.17,38,24.72,24.72,0,0,0,49.55,21.2a14.91,14.91,0,0,1-1,1.19Z"
        style="fill:#1f9fbc" />
    </g>
  </g>
</svg>