<svg width="25" height="25" viewBox="0 0 25 25" fill="none" xmlns="http://www.w3.org/2000/svg">
  <circle cx="12.5" cy="12.5" r="12.5" fill="#333333" />
  <path
    d="M12.2083 4.16667L7.85922 6.71951L9.45818 7.6626L12.2083 6.05285L14.9585 7.6626L16.5575 6.71951L12.2083 4.16667ZM14.9585 8.99592L16.5575 9.93904V11.8252L13.8073 13.435V16.6545L12.2083 17.5975L10.6094 16.6545V13.435L7.85922 11.8252V9.93904L9.45818 8.99592L12.2083 10.6057L14.9585 8.99592Z"
    fill="#F0B90B" />
  <path d="M16.5575 13.1585V15.0447L14.9585 15.9878V14.1016L16.5575 13.1585Z" fill="#F0B90B" />
  <path
    d="M14.9426 17.3211L17.6927 15.7114V12.4919L19.2917 11.5488V16.6545L14.9426 19.2073V17.3211ZM17.6927 9.27238L16.0938 8.32927L17.6927 7.38618L19.2917 8.32927V10.2155L17.6927 11.1585V9.27238ZM10.6094 19.8903V18.0041L12.2084 18.9472L13.8073 18.0041V19.8903L12.2084 20.8333L10.6094 19.8903ZM9.4582 15.9878L7.85924 15.0447V13.1585L9.4582 14.1016V15.9878ZM12.2084 9.27238L10.6094 8.32927L12.2084 7.38618L13.8073 8.32927L12.2084 9.27238ZM8.32292 8.32927L6.72398 9.27238V11.1585L5.12503 10.2155V8.32927L6.72398 7.38618L8.32292 8.32927Z"
    fill="#F0B90B" />
  <path d="M5.12503 11.5488L6.72398 12.4919V15.7114L9.47415 17.3211V19.2073L5.12503 16.6545V11.5488Z" fill="#F0B90B" />
</svg>