<svg width="24" height="24" viewBox="0 0 24 24" fill="none" xmlns="http://www.w3.org/2000/svg">
  <path
    d="M18.864 10.56C18.864 7.584 16.44 5.16 13.464 5.16C11.208 5.16 9.288 6.528 8.47201 8.496C6.55201 9.312 5.18401 11.232 5.18401 13.464C5.18401 16.44 7.60801 18.864 10.584 18.864C12.84 18.864 14.76 17.496 15.576 15.528C17.472 14.712 18.864 12.792 18.864 10.56ZM10.584 17.52C8.35201 17.52 6.52801 15.696 6.52801 13.464C6.52801 12.192 7.12801 11.04 8.064 10.296C8.064 10.392 8.064 10.488 8.064 10.56C8.064 13.536 10.488 15.96 13.464 15.96C13.584 15.96 13.68 15.96 13.8 15.96C13.032 16.92 11.88 17.52 10.584 17.52ZM14.52 14.472C14.184 14.568 13.824 14.616 13.464 14.616C11.232 14.616 9.40801 12.792 9.40801 10.56C9.40801 10.2 9.456 9.864 9.552 9.552C9.888 9.456 10.248 9.408 10.608 9.408C12.84 9.408 14.664 11.232 14.664 13.464C14.64 13.824 14.592 14.16 14.52 14.472ZM15.984 13.728C15.984 13.632 15.984 13.536 15.984 13.464C15.984 10.488 13.56 8.064 10.584 8.064C10.464 8.064 10.368 8.064 10.248 8.064C10.992 7.104 12.144 6.504 13.44 6.504C15.672 6.504 17.496 8.328 17.496 10.56C17.496 11.856 16.896 12.984 15.984 13.728Z"
    fill="white" />
  <path
    d="M12 24.0001C18.6275 24.0001 24.0001 18.6275 24.0001 12C24.0001 5.3726 18.6275 0 12 0C5.3726 0 0 5.3726 0 12C0 18.6275 5.3726 24.0001 12 24.0001Z"
    fill="#47CC85" />
  <path
    d="M11.6576 18.6993C14.0788 18.6993 16.1294 17.1428 16.8953 14.9934H15.3882C14.7212 16.377 13.2882 17.3158 11.6576 17.3158C9.35999 17.3158 7.48235 15.4381 7.48235 13.1405C7.48235 11.5099 8.42117 10.077 9.8047 9.40989V7.90282C7.65529 8.66871 6.09882 10.7193 6.09882 13.1405C6.09882 16.204 8.59411 18.6993 11.6576 18.6993ZM13.9306 13.6099H15.2153V13.3134L15.1165 12.6711C16.5 12.5228 17.3647 11.757 17.3647 10.6452C17.3647 8.02635 12.9176 9.08871 12.9176 7.75459C12.9176 7.28518 13.4612 6.98871 14.4 6.98871C15.1412 6.98871 15.9318 7.18635 16.6729 7.50753V6.22283C16.1541 6.07459 15.5859 5.97577 14.9929 5.95106L15.0918 5.30871V5.01224H13.8071V5.30871L13.9059 5.95106C12.4482 6.0993 11.5835 6.79106 11.5835 7.804C11.5835 10.5217 16.0306 9.28636 16.0306 10.744C16.0306 11.2381 15.4376 11.5593 14.5729 11.5593C13.6835 11.5593 12.7694 11.2875 11.6576 10.7687V12.1028C12.3988 12.4487 13.1894 12.6217 14.0294 12.6711L13.9306 13.3134V13.6099Z"
    fill="white" />
</svg>