<svg width="24" height="24" viewBox="0 0 24 24" fill="none" xmlns="http://www.w3.org/2000/svg"
  xmlns:xlink="http://www.w3.org/1999/xlink">
  <circle cx="12" cy="12" r="12" fill="url(#paint0_linear_15_1535)" />
  <rect opacity="0.3" x="4.25003" y="6" width="17.5" height="13" fill="url(#pattern0)" />
  <path
    d="M8.15249 15.8642C7.67007 15.5668 7.25071 15.1769 6.91836 14.7167C6.58602 14.2565 6.3472 13.735 6.21555 13.1821C6.08391 12.6292 6.06201 12.0556 6.15111 11.4942C6.24021 10.9328 6.43856 10.3945 6.73484 9.91006C6.90383 9.63347 6.54499 9.09599 6.54499 9.09599C6.54499 9.09599 5.90345 9.01322 5.73446 9.29086C5.22158 10.1286 4.94133 11.0889 4.9228 12.0722C4.90427 13.0554 5.14814 14.0257 5.62908 14.8823C6.11003 15.7389 6.81051 16.4506 7.65781 16.9435C8.50511 17.4363 9.46832 17.6924 10.4474 17.6851C10.3643 17.5941 10.288 17.4971 10.219 17.3949L10.0917 17.2105L10.1418 17.001C10.186 16.825 10.253 16.6555 10.341 16.497C9.56689 16.4963 8.80854 16.277 8.15249 15.8642V15.8642Z"
    fill="white" />
  <path
    d="M13.1325 7.38612C13.0838 7.35396 13.0321 7.32659 12.9781 7.3044C12.9395 7.28031 12.8936 7.26564 12.8644 7.24783C12.7601 7.19649 12.6652 7.15144 12.5702 7.10743C12.5504 7.09486 12.5243 7.09277 12.4951 7.07495C12.4503 7.06029 12.4106 7.03619 12.3647 7.02152C12.3188 7.00685 12.2604 6.98695 12.2093 6.96599L12.1989 6.95971C12.1436 6.9398 12.0946 6.92513 12.0435 6.90418C11.9527 6.87589 11.8609 6.84655 11.7806 6.82455L11.6763 6.79941C11.598 6.7762 11.5182 6.7587 11.4374 6.74702C11.3602 6.72729 11.2812 6.71535 11.2016 6.7114C11.1244 6.70407 11.0378 6.69149 10.9607 6.68416C10.8753 6.67193 10.7892 6.66458 10.703 6.66216C10.6873 6.66216 10.6613 6.66216 10.6456 6.66216C10.4589 6.65587 10.267 6.66216 10.075 6.66216C9.95922 6.67263 9.85074 6.67368 9.74538 6.69044C8.38007 6.86726 7.1284 7.54584 6.23203 8.59518C6.3548 8.58511 6.47837 8.59216 6.59922 8.61614L6.81411 8.64128L6.93929 8.81311C7.01861 8.93713 7.08836 9.06708 7.14792 9.20181C7.15522 9.23324 7.16878 9.25524 7.17608 9.28772C7.85733 8.52914 8.77859 8.03022 9.78397 7.87541C9.88829 7.85864 9.97904 7.84502 10.0781 7.83769C10.2732 7.82286 10.4691 7.82111 10.6644 7.83245C10.7322 7.83245 10.7937 7.84397 10.8449 7.84817C10.8709 7.84817 10.9064 7.85864 10.9314 7.86074L10.9419 7.86702L11.1255 7.89846C11.1609 7.90684 11.187 7.90893 11.2225 7.91731C11.258 7.9257 11.284 7.92779 11.3195 7.93617C11.4421 7.95892 11.5625 7.99222 11.6794 8.03571C11.7212 8.0462 11.7615 8.06205 11.7994 8.08285C11.8413 8.09402 11.8819 8.10983 11.9204 8.13C11.9558 8.13838 11.9955 8.16248 12.0309 8.17086L12.0403 8.17715C12.0862 8.19077 12.1259 8.21591 12.1707 8.22953C12.2145 8.24538 12.2561 8.26649 12.2949 8.2924L12.3053 8.29868C12.3439 8.32278 12.3804 8.33116 12.419 8.35631C12.4995 8.39364 12.5772 8.43671 12.6516 8.48517C13.2949 8.8776 13.8249 9.43198 14.1892 10.0934C14.2341 10.1762 14.2821 10.2736 14.3269 10.3564C14.4052 10.524 14.4718 10.697 14.5262 10.874C14.6242 11.1788 15.2658 11.2616 15.2658 11.2616C15.3671 11.149 15.4588 11.0281 15.5401 10.9001C15.6246 10.7618 15.6841 10.6204 15.6517 10.5188C15.5887 10.3186 15.5138 10.1223 15.4275 9.93102C15.3784 9.83358 15.3367 9.72147 15.2877 9.62718C14.8281 8.73784 14.1361 7.991 13.2859 7.4668C13.2324 7.44454 13.1811 7.41754 13.1325 7.38612V7.38612Z"
    fill="white" />
  <path
    d="M20.1477 16.4823H11.2444C11.0808 16.4823 10.9482 16.6156 10.9482 16.7799V17.3383C10.9482 17.5027 11.0808 17.6359 11.2444 17.6359H20.1477C20.3114 17.6359 20.444 17.5027 20.444 17.3383V16.7799C20.444 16.6156 20.3114 16.4823 20.1477 16.4823Z"
    fill="white" />
  <path
    d="M9.7193 16.4823H5.29214C5.17519 16.4823 5.08038 16.5776 5.08038 16.695V17.4232C5.08038 17.5407 5.17519 17.6359 5.29214 17.6359H9.7193C9.83626 17.6359 9.93106 17.5407 9.93106 17.4232V16.695C9.93106 16.5776 9.83626 16.4823 9.7193 16.4823Z"
    fill="white" />
  <path
    d="M15.4483 11.7823L15.2032 11.7561C15.0577 11.739 14.9146 11.7056 14.7765 11.6566C14.7411 11.6482 14.7212 11.6356 14.6858 11.6273C14.8091 12.6071 14.5948 13.5998 14.0787 14.4404C13.5765 15.2589 12.8198 15.8886 11.9256 16.2319C11.8338 16.2707 11.7389 16.2938 11.6471 16.3367C11.4666 16.3881 11.2913 16.43 11.1067 16.4666C11.0396 16.4861 10.9772 16.5192 10.9233 16.5639C10.8695 16.6086 10.8254 16.6639 10.7938 16.7265C10.7176 16.8583 10.6581 16.999 10.6164 17.1456C10.6164 17.1456 10.9742 17.6925 11.2955 17.6317C11.5029 17.5977 11.7081 17.5512 11.9099 17.4923C12.0143 17.4599 12.1186 17.4337 12.2291 17.3876C13.415 16.9657 14.4213 16.149 15.0811 15.0732C15.7648 13.9625 16.0301 12.6428 15.8291 11.3528C15.7248 11.4952 15.6267 11.5958 15.6142 11.6157L15.4483 11.7823Z"
    fill="white" />
  <defs>
    <linearGradient id="paint0_linear_15_1535" x1="12.5" y1="0" x2="12.5" y2="25" gradientUnits="userSpaceOnUse">
      <stop stop-color="#1B76A0" />
      <stop offset="1" stop-color="#52B599" />
    </linearGradient>
  </defs>
</svg>